<svg class="svg-icon" style="width: 1em;height: 1em;vertical-align: middle;fill: currentColor;overflow: hidden;" viewBox="0 0 1024 1024" version="1.1" xmlns="http://www.w3.org/2000/svg"><path d="M780.466 627.986c-15.899-12.285-31.797-23.125-49.14-33.242-33.965-19.512-70.098-33.965-108.399-44.082 72.266-37.578 121.406-113.457 121.406-200.175 0-125.02-101.894-226.913-226.913-226.913S290.507 224.745 290.507 350.487c0 86.718 49.14 162.597 121.405 200.898-156.093 39.746-281.834 165.487-315.8 327.362-2.89 13.73 5.782 26.738 19.513 29.628 1.445 0.723 3.613 0.723 5.058 0.723 11.563 0 22.402-7.95 24.57-20.234 36.856-174.16 192.949-301.347 371.444-301.347 66.484 0 131.523 17.344 189.335 50.586 15.176 8.672 29.63 18.789 43.36 28.906 10.84 8.672 26.738 6.504 35.41-4.336 8.672-10.117 7.226-26.015-4.336-34.687z m-439.374-277.5c0-97.557 79.492-176.327 176.328-176.327s176.327 78.77 176.327 176.328-79.492 176.327-176.327 176.327-176.328-79.491-176.328-176.327zM804.314 714.704a27.46 27.46 0 1 0 54.921 0 27.46 27.46 0 1 0-54.922 0zM855.622 793.474a27.46 27.46 0 1 0 54.921 0 27.46 27.46 0 1 0-54.921 0zM883.083 880.915a27.46 27.46 0 1 0 54.921 0 27.46 27.46 0 1 0-54.921 0z"  /></svg>